<svg width="40" height="40" viewBox="0 0 40 40" fill="none" xmlns="http://www.w3.org/2000/svg">
                                                <rect width="40" height="40" rx="3" fill="white"></rect>
                                                <path d="M12 14.4482V16.5664H12.5466H13.0933V15.3957V14.2204L15.6214 16.7486L18.1496 19.2767L18.5459 18.8759L18.9468 18.4796L16.4186 15.9514L13.8904 13.4232H15.0657H16.2364V12.8766V12.33H14.1182H12V14.4482Z" fill="#181818"></path>
                                                <path d="M12 14.4482V16.5664H12.5466H13.0933V15.3957V14.2204L15.6214 16.7486L18.1496 19.2767L18.5459 18.8759L18.9468 18.4796L16.4186 15.9514L13.8904 13.4232H15.0657H16.2364V12.8766V12.33H14.1182H12V14.4482Z" fill="black" fill-opacity="0.2"></path>
                                                <path d="M23.4345 12.8766V13.4232H24.6052H25.7805L23.2523 15.9514L20.7241 18.4796L21.125 18.8759L21.5213 19.2767L24.0495 16.7486L26.5776 14.2204V15.3957V16.5664H27.1243H27.6709V14.4482V12.33H25.5527H23.4345V12.8766Z" fill="#181818"></path>
                                                <path d="M23.4345 12.8766V13.4232H24.6052H25.7805L23.2523 15.9514L20.7241 18.4796L21.125 18.8759L21.5213 19.2767L24.0495 16.7486L26.5776 14.2204V15.3957V16.5664H27.1243H27.6709V14.4482V12.33H25.5527H23.4345V12.8766Z" fill="black" fill-opacity="0.2"></path>
                                                <path d="M15.6078 23.5905L13.0933 26.1096V24.9343V23.7636H12.5466H12V25.8818V28H14.1182H16.2364V27.4534V26.9067H15.0657H13.8904L16.4186 24.3786L18.9468 21.8504L18.5596 21.4632C18.35 21.2491 18.1633 21.076 18.1496 21.076C18.1359 21.076 16.9926 22.2103 15.6078 23.5905Z" fill="#181818"></path>
                                                <path d="M15.6078 23.5905L13.0933 26.1096V24.9343V23.7636H12.5466H12V25.8818V28H14.1182H16.2364V27.4534V26.9067H15.0657H13.8904L16.4186 24.3786L18.9468 21.8504L18.5596 21.4632C18.35 21.2491 18.1633 21.076 18.1496 21.076C18.1359 21.076 16.9926 22.2103 15.6078 23.5905Z" fill="black" fill-opacity="0.2"></path>
                                                <path d="M21.1113 21.4632L20.7241 21.8504L23.2523 24.3786L25.7805 26.9067H24.6052H23.4345V27.4534V28H25.5527H27.6709V25.8818V23.7636H27.1243H26.5776V24.9343V26.1096L24.0586 23.5905C22.6783 22.2103 21.535 21.076 21.5213 21.076C21.5076 21.076 21.3209 21.2491 21.1113 21.4632Z" fill="#181818"></path>
                                                <path d="M21.1113 21.4632L20.7241 21.8504L23.2523 24.3786L25.7805 26.9067H24.6052H23.4345V27.4534V28H25.5527H27.6709V25.8818V23.7636H27.1243H26.5776V24.9343V26.1096L24.0586 23.5905C22.6783 22.2103 21.535 21.076 21.5213 21.076C21.5076 21.076 21.3209 21.2491 21.1113 21.4632Z" fill="black" fill-opacity="0.2"></path>
                                            </svg>