<svg width="32" height="37" viewBox="0 0 36 37" fill="none" xmlns="http://www.w3.org/2000/svg">
                                            <path d="M1 1H5.63636V24.1818H35" stroke="#F9FFFB" stroke-width="2" stroke-miterlimit="10" stroke-linecap="square"></path>
                                            <path d="M8.72763 35.0021C10.4347 35.0021 11.8185 33.6183 11.8185 31.9112C11.8185 30.2042 10.4347 28.8203 8.72763 28.8203C7.02057 28.8203 5.63672 30.2042 5.63672 31.9112C5.63672 33.6183 7.02057 35.0021 8.72763 35.0021Z" stroke="#F9FFFB" stroke-width="2" stroke-miterlimit="10" stroke-linecap="square"></path>
                                            <path d="M31.9073 35.0021C33.6144 35.0021 34.9982 33.6183 34.9982 31.9112C34.9982 30.2042 33.6144 28.8203 31.9073 28.8203C30.2003 28.8203 28.8164 30.2042 28.8164 31.9112C28.8164 33.6183 30.2003 35.0021 31.9073 35.0021Z" stroke="#F9FFFB" stroke-width="2" stroke-miterlimit="10" stroke-linecap="square"></path>
                                            <path d="M34.9982 1H11.8164V18H34.9982V1Z" stroke="#F9FFFB" stroke-width="2" stroke-miterlimit="10" stroke-linecap="square"></path>
                                            <path d="M11.8164 7.17969H34.9982" stroke="#F9FFFB" stroke-width="2" stroke-miterlimit="10" stroke-linecap="square"></path>
                                        </svg>